<!-- This file is used as the favicon for NotesNotey. It is a note/file SVG. -->
<svg fill="none" viewBox="0 0 16 16" xmlns="http://www.w3.org/2000/svg"><path d="M14.5 13.5V5.41a1 1 0 0 0-.3-.7L9.8.29A1 1 0 0 0 9.08 0H1.5v13.5A2.5 2.5 0 0 0 4 16h8a2.5 2.5 0 0 0 2.5-2.5m-1.5 0v-7H8v-5H3v12a1 1 0 0 0 1 1h8a1 1 0 0 0 1-1M9.5 5V2.12L12.38 5zM5.13 5h-.62v1.25h2.12V5zm-.62 3h7.12v1.25H4.5zm.62 3h-.62v1.25h7.12V11z" clip-rule="evenodd" fill="url(#notey-gradient)" fill-rule="evenodd"/>
  <defs>
    <linearGradient id="notey-gradient" x1="0" y1="0" x2="16" y2="16" gradientUnits="userSpaceOnUse">
      <stop stop-color="#ec4899" />
      <stop offset="1" stop-color="#f59e42" />
    </linearGradient>
  </defs>
</svg>
